<svg xmlns="http://www.w3.org/2000/svg" xmlns:xlink="http://www.w3.org/1999/xlink" version="1.1" width="96" height="96" viewBox="0 0 96 96">
<path d="M70.012 91.984h-44c-1.104 0-2-0.9-2-2v-40c0-1.104 0.896-2 2-2h44c1.104 0 2 0.896 2 2v40c0 1.1-0.896 2-2 2zM28.012 87.984h40v-36h-40v36z" fill="#000000"/>
	<path d="M36.26 67.736c-3.308 0-6-2.688-6-6s2.692-6 6-6 6 2.688 6 6-2.688 6-6 6zM36.26 59.736c-1.104 0-2 0.9-2 2 0 1.096 0.896 2 2 2s2-0.904 2-2c0-1.104-0.896-2-2-2z" fill="#000000"/>
	<path d="M62.012 83.984h-30c-0.684 0-1.324-0.352-1.688-0.928-0.364-0.58-0.412-1.304-0.12-1.916l5-10.62c0.464-0.976 1.616-1.416 2.604-0.984l9.62 4.156 9.044-10.968c0.48-0.584 1.26-0.852 2.008-0.672s1.32 0.76 1.488 1.508l4 18c0.132 0.592-0.016 1.216-0.392 1.688-0.384 0.464-0.96 0.736-1.564 0.736zM35.164 79.984h24.352l-2.572-11.572-7.396 8.968c-0.568 0.688-1.516 0.916-2.336 0.564l-9.22-3.984-2.828 6.024z" fill="#000000"/>
	<path d="M79.992 71.868c-0.996 0-1.856-0.748-1.984-1.752-0.136-1.096 0.644-2.088 1.744-2.232 6.984-0.868 12.248-6.836 12.248-13.88 0-5.028-2.656-9.552-7.1-12.092-0.664-0.38-1.056-1.108-1-1.872 0.060-0.912 0.1-1.46 0.1-2.020 0-16.54-13.456-30-29.996-30-13.716 0-25.66 9.288-29.044 22.596-0.232 0.916-1.108 1.552-2.028 1.504-0.22-0.012-0.432-0.036-0.648-0.072-0.020 0-0.044 0-0.064 0-10.18 0-18.224 8.056-18.224 17.948 0 7.904 5.068 14.8 12.608 17.164 1.056 0.332 1.64 1.448 1.312 2.504-0.332 1.056-1.452 1.644-2.504 1.312-9.22-2.884-15.412-11.32-15.412-20.98 0-11.964 9.616-21.728 21.536-21.976 4.356-14.216 17.48-24.004 32.468-24.004 18.748 0 33.996 15.252 33.996 34 0 0.364-0.012 0.728-0.032 1.088 4.984 3.332 8.032 8.928 8.032 14.896 0 9.064-6.776 16.736-15.756 17.844-0.088 0.016-0.164 0.024-0.252 0.024z" fill="#000000"/>
</svg>